<svg width="32" height="32" viewBox="0 0 32 32" fill="none" xmlns="http://www.w3.org/2000/svg">
<path fill-rule="evenodd" clip-rule="evenodd" d="M13.0482 4.00947C13.5833 4.00192 14.1791 3.99915 14.8466 4.00022L14.8474 4.00038L17.0762 4.01409L18.8167 4.03465L20.1919 4.06546C20.5966 4.07779 20.9509 4.09304 21.266 4.11245C21.5811 4.13186 21.8566 4.1552 22.1033 4.18409C22.3501 4.21297 22.568 4.24694 22.768 4.28769C22.9679 4.32843 23.1495 4.37565 23.3241 4.43072C23.4976 4.48594 23.6684 4.54935 23.836 4.62075C24.0065 4.69269 24.1801 4.7738 24.3678 4.86523C24.481 4.92025 24.5925 4.9785 24.7023 5.03992C24.8102 5.10033 24.9163 5.16393 25.0205 5.23064C25.1232 5.29641 25.2239 5.36531 25.3225 5.43723C25.42 5.50842 25.5153 5.58263 25.6082 5.65975C25.7008 5.73663 25.7905 5.81612 25.8776 5.89823C25.9647 5.98031 26.0491 6.06513 26.1308 6.15257C26.2126 6.24012 26.2916 6.33023 26.3678 6.42278C26.4443 6.51583 26.5179 6.61126 26.5884 6.70893C26.6594 6.80691 26.7275 6.90758 26.7929 7.01087C26.8584 7.11416 26.921 7.22008 26.981 7.32868C27.0411 7.43729 27.0983 7.54844 27.1529 7.66236C27.2074 7.77628 27.2599 7.89267 27.3083 8.01183C27.3568 8.13099 27.403 8.25277 27.4467 8.37717C27.4909 8.50311 27.5319 8.63017 27.5696 8.75821C27.6083 8.88964 27.6438 9.02198 27.6761 9.15513C27.7093 9.29197 27.7393 9.42955 27.7662 9.56776C27.7905 9.69285 27.8134 9.87787 27.8346 10.1128L27.893 10.957L27.94 12.0398L27.9743 13.301L28 16.1167L27.9889 17.5503L27.9602 18.9214L27.9199 20.152L27.873 21.1416C27.8553 21.4364 27.8352 21.6987 27.8115 21.9361C27.7878 22.1735 27.7605 22.3861 27.7282 22.5814C27.6959 22.7768 27.6585 22.9549 27.6152 23.1235C27.573 23.2875 27.523 23.4493 27.4652 23.6084C27.4065 23.7688 27.3415 23.9268 27.2703 24.082C27.1971 24.243 27.1153 24.41 27.0233 24.5902C26.9622 24.71 26.9022 24.818 26.8371 24.9219C26.7703 25.0285 26.698 25.1314 26.6203 25.2302C26.5388 25.3343 26.4458 25.4424 26.3355 25.5625C26.2251 25.6826 26.0972 25.8146 25.9455 25.9665C25.7729 26.1395 25.6335 26.2763 25.5105 26.3898C25.3874 26.5034 25.2807 26.5935 25.1734 26.6727C25.0646 26.7525 24.9507 26.8252 24.8325 26.8902C24.7068 26.9601 24.5636 27.0316 24.3857 27.1174C24.27 27.1734 24.1545 27.226 24.039 27.2753C23.9242 27.3244 23.8083 27.3706 23.6913 27.4141C23.575 27.4572 23.4579 27.4974 23.3397 27.5346C23.2214 27.5718 23.102 27.6069 22.9808 27.6377C22.8584 27.6695 22.7352 27.6983 22.6114 27.7242C22.4862 27.7504 22.3587 27.7739 22.2283 27.795C22.0979 27.8161 21.9639 27.8347 21.8282 27.851C21.6924 27.8672 21.5517 27.8811 21.4079 27.8928L20.738 27.9273L19.7097 27.9562L17.0052 27.9942L14.1492 28C13.267 27.9959 12.502 27.9852 11.9966 27.9669C11.6695 27.955 11.365 27.9402 11.0801 27.9217C10.7952 27.9033 10.5301 27.8811 10.2816 27.8544C10.0331 27.8277 9.80055 27.7966 9.58296 27.7604C9.36537 27.7242 9.15977 27.6827 8.96555 27.6354C8.77134 27.5881 8.58758 27.5348 8.4112 27.4749C8.23482 27.415 8.06597 27.3484 7.90128 27.2743C7.73658 27.2003 7.57635 27.1189 7.4175 27.0292C7.25865 26.9394 7.10095 26.8417 6.94157 26.7349C6.76984 26.6201 6.60382 26.497 6.4441 26.366C6.28625 26.2364 6.13648 26.1001 5.99446 25.9568C5.85267 25.8138 5.71837 25.6636 5.59211 25.5067C5.46571 25.3498 5.3473 25.1858 5.23658 25.0149C5.12586 24.844 5.02284 24.6661 4.9275 24.4809C4.83215 24.2957 4.7445 24.1033 4.66439 23.9038C4.58288 23.7001 4.51028 23.493 4.44679 23.283C4.38049 23.0636 4.32293 22.8417 4.27426 22.6178C4.25027 22.5076 4.22797 22.3804 4.20721 22.235C4.18442 22.0712 4.16542 21.9069 4.15024 21.7423L4.10288 21.1315L4.06497 20.3943L4.01576 18.5072L4 16.0164L4.00538 14.3036L4.02399 12.8865L4.05859 11.724C4.0732 11.3744 4.09103 11.0603 4.11256 10.7748C4.13161 10.5152 4.15709 10.2561 4.18899 9.99772C4.21859 9.76202 4.25227 9.54889 4.29087 9.3507C4.32946 9.15251 4.37275 8.96927 4.42142 8.79411C4.46913 8.62272 4.52327 8.45319 4.58373 8.28589C4.66523 8.05959 4.74689 7.85685 4.83438 7.6686C4.87714 7.57644 4.9226 7.48556 4.97071 7.39608C5.01807 7.30812 5.06758 7.22262 5.11987 7.13866C5.1727 7.05396 5.22816 6.97093 5.28618 6.88971C5.34484 6.80729 5.40712 6.72534 5.47363 6.64246C5.60664 6.47662 5.7565 6.30762 5.92896 6.12638C6.0662 5.98134 6.19829 5.85155 6.32762 5.73355C6.45133 5.62015 6.58031 5.51265 6.71413 5.41142C6.84407 5.3136 6.97678 5.22378 7.11687 5.13875C7.25696 5.05371 7.40443 4.97337 7.56405 4.89404C7.77149 4.79097 7.97294 4.69901 8.17946 4.61705C8.28272 4.57607 8.38728 4.53771 8.49446 4.50151C8.60385 4.46468 8.71422 4.43087 8.82547 4.40014C8.93926 4.36872 9.0572 4.33945 9.18069 4.31233C9.30417 4.28522 9.43295 4.26026 9.56866 4.23716C9.71119 4.21311 9.85421 4.19202 9.99762 4.17392C10.1483 4.15474 10.3073 4.13733 10.4759 4.12177C10.8129 4.09057 11.1885 4.06647 11.6135 4.04798L13.0482 4.00947ZM19.2183 6.13693L16.0042 6.1186L16.0047 6.11791L12.7956 6.13755L11.5892 6.16143C11.2577 6.1709 11.006 6.18215 10.8599 6.19478C10.6505 6.21296 10.4546 6.23391 10.2704 6.25817C10.0863 6.28243 9.91381 6.31024 9.75142 6.34213C9.59699 6.3721 9.44386 6.40841 9.2924 6.45097C9.14824 6.49256 9.01215 6.53839 8.88259 6.58962C8.75304 6.64084 8.62986 6.69776 8.51138 6.76077C8.3929 6.82378 8.2791 6.89233 8.16815 6.96936C8.0553 7.04716 7.94649 7.13068 7.84215 7.21961C7.73165 7.31387 7.62509 7.41268 7.52276 7.51578C7.43495 7.60382 7.35399 7.68924 7.27903 7.77382C7.20406 7.85839 7.13517 7.94181 7.0712 8.02631C7.00723 8.11081 6.94856 8.19577 6.8942 8.28335C6.83984 8.37093 6.78979 8.46089 6.7432 8.55486C6.69548 8.6515 6.6521 8.75021 6.61318 8.85072C6.57281 8.95448 6.53506 9.06401 6.49923 9.18093C6.46152 9.30482 6.42725 9.42973 6.39643 9.55551C6.36345 9.68885 6.33154 9.83127 6.29986 9.98432C6.29025 10.0308 6.28087 10.1083 6.2718 10.2129L6.24566 10.6046L6.19952 11.7896L6.13901 15.1529L6.13132 18.6726L6.15224 20.0533C6.16223 20.4415 6.1753 20.7492 6.19176 20.9468C6.21406 21.215 6.24204 21.4673 6.2768 21.7053C6.31155 21.9433 6.35261 22.1667 6.40074 22.377C6.44887 22.5873 6.50423 22.7845 6.56728 22.9697C6.5988 23.0623 6.63232 23.152 6.66769 23.2388C6.70251 23.3242 6.74007 23.4084 6.78033 23.4913C6.81993 23.5726 6.8616 23.6515 6.90543 23.7277C6.9488 23.8033 6.99489 23.8773 7.0436 23.9496C7.09159 24.0207 7.14219 24.0901 7.19529 24.1575C7.24819 24.2247 7.30332 24.2896 7.36099 24.3526C7.41885 24.4158 7.47897 24.4769 7.54121 24.5357C7.60388 24.5949 7.66885 24.6524 7.73651 24.7081C7.80417 24.7639 7.87444 24.8171 7.94718 24.8705C8.01991 24.9239 8.09549 24.9743 8.17369 25.024C8.27733 25.09 8.37983 25.1506 8.48339 25.2063C8.58696 25.2621 8.69153 25.3132 8.79917 25.3598C8.90681 25.4064 9.01745 25.4487 9.13317 25.4872C9.2532 25.527 9.37478 25.5619 9.49762 25.5918C9.63234 25.6247 9.76812 25.6529 9.90474 25.6766C10.0489 25.7018 10.2021 25.7243 10.3667 25.7444C10.5312 25.7645 10.7068 25.7822 10.8957 25.7981L11.5038 25.841L12.3286 25.8667L13.5988 25.8802L16.8332 25.8752L19.9233 25.8349L21.0132 25.8046C21.2992 25.7935 21.4989 25.7816 21.5858 25.7689C21.8118 25.7362 22.0363 25.6941 22.2587 25.6427C22.4722 25.593 22.6749 25.5354 22.8671 25.4698C22.9616 25.4376 23.0552 25.4028 23.1478 25.3654C23.2373 25.3292 23.3257 25.2903 23.413 25.2488C23.4987 25.2079 23.582 25.1649 23.6628 25.1199C23.7437 25.0749 23.8219 25.0278 23.8978 24.9786C23.9737 24.9295 24.0471 24.8782 24.1181 24.8247C24.1891 24.7713 24.2577 24.7158 24.3238 24.6581C24.3899 24.6003 24.4537 24.5404 24.5152 24.4784C24.5767 24.4164 24.6358 24.3522 24.6926 24.2859C24.7495 24.2193 24.8041 24.1506 24.8561 24.0801C24.9083 24.0093 24.9583 23.9362 25.006 23.8609C25.0541 23.7849 25.0997 23.7074 25.1425 23.6283C25.1859 23.5484 25.2269 23.4664 25.2659 23.382C25.3097 23.2876 25.3513 23.1921 25.3908 23.0957C25.4282 23.0045 25.4627 22.9121 25.4945 22.8187C25.5261 22.7258 25.5545 22.6319 25.5798 22.5371C25.6062 22.4377 25.6294 22.3375 25.6494 22.2367C25.6713 22.1261 25.6902 22.015 25.7062 21.9034C25.7233 21.7854 25.7387 21.6595 25.7529 21.5235C25.7812 21.2514 25.8049 20.9388 25.8273 20.567L25.8597 19.773L25.8832 18.6812L25.9028 16.0017L25.8856 13.3196L25.8631 12.2247C25.8541 11.9036 25.8435 11.6317 25.8313 11.4256C25.8161 11.1688 25.7976 10.9287 25.7753 10.7035C25.753 10.4784 25.7267 10.2681 25.696 10.0709C25.6674 9.88489 25.6319 9.70002 25.5894 9.51669C25.5489 9.34377 25.5032 9.18194 25.4518 9.02965C25.4004 8.87737 25.3432 8.7341 25.2796 8.59854C25.2173 8.46555 25.1469 8.33655 25.0687 8.21225C24.9915 8.0897 24.9069 7.97192 24.8155 7.85955C24.7238 7.74647 24.6243 7.63686 24.5165 7.52926C24.4143 7.42728 24.3096 7.33192 24.2017 7.24295C24.0937 7.15399 23.9825 7.07141 23.8672 6.99477C23.7513 6.91777 23.6315 6.84693 23.5082 6.78257C23.3838 6.71771 23.2547 6.65848 23.1196 6.60464C22.9845 6.55079 22.8437 6.50211 22.6963 6.45867C22.5489 6.41523 22.3949 6.37671 22.2334 6.34282C22.0653 6.30788 21.8961 6.27862 21.726 6.25509C21.5487 6.23044 21.3634 6.20988 21.1689 6.19347C21.0195 6.18076 20.7647 6.16975 20.4308 6.16035L19.2183 6.13693ZM22.3971 8.12729C22.3484 8.1273 22.2997 8.12976 22.2512 8.13468C22.2027 8.13959 22.1545 8.14694 22.1067 8.15671C22.059 8.16647 22.0117 8.17863 21.9652 8.19314C21.9186 8.20767 21.8728 8.22453 21.8279 8.24367C21.783 8.26283 21.7391 8.28425 21.6964 8.30783C21.6536 8.33137 21.612 8.35706 21.5718 8.38478C21.5316 8.41254 21.4928 8.44231 21.4555 8.47398C21.4182 8.50562 21.3825 8.53912 21.3486 8.57435C21.3147 8.6096 21.2825 8.64654 21.2522 8.68503C21.2219 8.72353 21.1935 8.76353 21.1672 8.80488C21.1409 8.84621 21.1167 8.88883 21.0946 8.9326C21.0724 8.97639 21.0525 9.02128 21.0348 9.06708C21.0172 9.11288 21.0018 9.15954 20.9888 9.20689C20.9757 9.25423 20.9651 9.3022 20.9568 9.35062C20.9485 9.39902 20.9426 9.44781 20.9392 9.49681C20.9367 9.53152 20.9355 9.56631 20.9355 9.60111C20.9355 9.65026 20.9379 9.69939 20.9428 9.7483C20.9477 9.79719 20.9549 9.84581 20.9646 9.89396C20.9743 9.94211 20.9864 9.98975 21.0008 10.0367C21.0152 10.0836 21.0319 10.1298 21.0509 10.1751C21.0699 10.2204 21.0911 10.2647 21.1145 10.3078C21.1378 10.351 21.1633 10.3929 21.1908 10.4335C21.2183 10.474 21.2479 10.5131 21.2793 10.5507C21.3106 10.5883 21.3439 10.6243 21.3788 10.6585C21.4138 10.6928 21.4504 10.7252 21.4886 10.7557C21.5268 10.7863 21.5665 10.8149 21.6075 10.8415C21.6485 10.868 21.6908 10.8925 21.7343 10.9148C21.7777 10.9371 21.8222 10.9572 21.8676 10.975C21.913 10.9928 21.9593 11.0083 22.0062 11.0215C22.0532 11.0346 22.1008 11.0453 22.1488 11.0537C22.1968 11.062 22.2452 11.068 22.2938 11.0715C22.3282 11.0739 22.3627 11.0752 22.3972 11.0752C22.4459 11.0752 22.4946 11.0727 22.5431 11.0678C22.5916 11.0629 22.6398 11.0556 22.6876 11.0458C22.7354 11.0361 22.7826 11.0239 22.8291 11.0094C22.8757 10.9949 22.9215 10.978 22.9664 10.9588C23.0113 10.9397 23.0552 10.9183 23.0979 10.8948C23.1407 10.8712 23.1823 10.8455 23.2225 10.8177C23.2627 10.79 23.3016 10.7603 23.3388 10.7286C23.3761 10.697 23.4118 10.6634 23.4457 10.6282C23.4797 10.5929 23.5118 10.556 23.5421 10.5175C23.5724 10.479 23.6008 10.439 23.6271 10.3976C23.6534 10.3563 23.6777 10.3136 23.6997 10.2698C23.7219 10.2261 23.7418 10.1812 23.7595 10.1354C23.7771 10.0896 23.7925 10.0429 23.8055 9.99556C23.8186 9.94822 23.8293 9.90025 23.8375 9.85183C23.8458 9.80342 23.8517 9.75463 23.8551 9.70563C23.8576 9.67092 23.8588 9.63613 23.8588 9.60134C23.8588 9.5522 23.8564 9.5031 23.8515 9.45422C23.8467 9.40533 23.8394 9.35672 23.8297 9.30856C23.82 9.26041 23.8079 9.21277 23.7936 9.16583C23.7791 9.11888 23.7624 9.07268 23.7434 9.02741C23.7244 8.98213 23.7032 8.93784 23.6798 8.8947C23.6565 8.85156 23.631 8.80964 23.6035 8.76907C23.5759 8.7285 23.5464 8.68935 23.515 8.65176C23.4836 8.61416 23.4504 8.57817 23.4155 8.54392C23.3805 8.50969 23.3439 8.47725 23.3057 8.44671C23.2675 8.41618 23.2278 8.3876 23.1868 8.36106C23.1458 8.3345 23.1035 8.31003 23.06 8.28773C23.0166 8.26542 22.9721 8.24532 22.9267 8.2275C22.8813 8.20969 22.835 8.19419 22.7881 8.18105C22.7411 8.1679 22.6936 8.15713 22.6455 8.14878C22.5975 8.14044 22.5491 8.13452 22.5005 8.13106C22.4661 8.1286 22.4316 8.12736 22.3971 8.12736V8.12729ZM16.0106 9.87472C15.7995 9.87472 15.5907 9.8855 15.3851 9.90661C15.1794 9.92771 14.9766 9.95898 14.7772 10C14.5778 10.0411 14.382 10.0919 14.1901 10.1519L13.6268 10.3591L13.0905 10.6186L12.5844 10.927L12.1116 11.2814L11.6752 11.6784L11.2785 12.1152L10.9244 12.5884L10.6161 13.0949L10.357 13.6315C10.2791 13.8151 10.2098 14.0032 10.1499 14.1954C10.0899 14.3875 10.0392 14.5836 9.9981 14.7831C9.95704 14.9826 9.92582 15.1855 9.90468 15.3914C9.88354 15.5973 9.87292 15.8062 9.87292 16.0174C9.87292 16.2286 9.88369 16.4375 9.90468 16.6434C9.92555 16.8477 9.95673 17.0507 9.9981 17.2518C10.0392 17.4521 10.0899 17.6474 10.1499 17.8395C10.2098 18.0316 10.279 18.2197 10.357 18.4034L10.6161 18.94L10.9244 19.4465L11.2785 19.9197L11.6752 20.3565L12.1116 20.7535L12.5844 21.1078L13.0905 21.4163L13.6268 21.6758L14.1901 21.883L14.7772 22.0349C14.9781 22.0763 15.181 22.1075 15.3851 22.1284C15.5929 22.1496 15.8017 22.1602 16.0106 22.1602C16.2216 22.1602 16.4304 22.1494 16.636 22.1284C16.84 22.1075 17.0429 22.0763 17.2438 22.0349L17.831 21.883L18.3943 21.6758L18.9305 21.4163L19.4367 21.1078L19.9095 20.7535L20.3459 20.3565L20.7427 19.9197L21.0967 19.4465L21.4051 18.94L21.6642 18.4034L21.8713 17.8395C21.9313 17.6474 21.982 17.4513 22.0231 17.2518L22.1165 16.6433C22.1376 16.4374 22.1483 16.2285 22.1483 16.0173C22.1483 15.8061 22.1376 15.5972 22.1165 15.3913C22.0956 15.1871 22.0645 14.9841 22.0231 14.783C21.982 14.5827 21.9313 14.3875 21.8713 14.1953L21.6642 13.6314L21.4051 13.0948L21.0967 12.5883L20.7427 12.1151L20.3459 11.6784L19.9095 11.2813L19.4367 10.927L18.9305 10.6185L18.3943 10.3591L17.831 10.1519L17.2438 9.99996L16.636 9.90653C16.4282 9.88527 16.2194 9.87462 16.0106 9.87464V9.87472ZM16.0106 11.9949C16.1501 11.9949 16.2878 12.0019 16.4234 12.0156L16.8233 12.0762L17.2095 12.1748L17.5793 12.3094L17.9309 12.4781L18.2615 12.6787L18.5706 12.9096L18.8555 13.1685L19.1143 13.4537L19.3449 13.763L19.5455 14.0947L19.7138 14.4467C19.7644 14.5672 19.8093 14.6906 19.8484 14.8169C19.8875 14.9431 19.9203 15.0721 19.9468 15.2035C19.9733 15.335 19.9929 15.4687 20.0073 15.6045L20.0279 16.0178C20.0279 16.1574 20.021 16.2953 20.0073 16.4312C19.9936 16.5671 19.9735 16.7008 19.9468 16.8321C19.9201 16.9634 19.8872 17.0925 19.8484 17.2188L19.7138 17.589L19.5455 17.941L19.3449 18.2726L19.1143 18.582L18.8555 18.8672L18.5706 19.1261L18.2615 19.357L17.9309 19.5576L17.5793 19.7263L17.2095 19.8609L16.8233 19.9595L16.4234 20.02C16.2862 20.0338 16.1484 20.0407 16.0105 20.0406C15.8725 20.0407 15.7347 20.0338 15.5974 20.02L15.1976 19.9595C15.0664 19.9328 14.9375 19.8998 14.8113 19.8609L14.4415 19.7263L14.0899 19.5576L13.7593 19.357L13.4502 19.1261L13.1653 18.8672L12.9065 18.582L12.6759 18.2726L12.4753 17.941L12.307 17.589L12.1724 17.2188L12.074 16.8321L12.0135 16.4312C11.9997 16.2938 11.9928 16.1559 11.9929 16.0178C11.9928 15.8798 11.9997 15.7418 12.0135 15.6045C12.0271 15.4687 12.0473 15.3349 12.074 15.2035C12.1004 15.0731 12.1333 14.9441 12.1725 14.817L12.307 14.4468L12.4754 14.0948L12.6759 13.7631L12.9066 13.4537L13.1653 13.1686L13.4503 12.9096L13.7594 12.6788L14.09 12.4781L14.4416 12.3094C14.5626 12.2585 14.6861 12.2136 14.8115 12.1749L15.1978 12.0763C15.329 12.0496 15.4627 12.0293 15.5976 12.0157C15.7348 12.0019 15.8727 11.995 16.0106 11.995L16.0106 11.9949Z" fill="#ABB2BF"/>
</svg>
